<svg xmlns="http://www.w3.org/2000/svg" viewBox="0 0 512 512">
  <rect width="512" height="512" rx="112" fill="#102a43"/>
  <path d="M123 326V196c0-42 34-76 76-76h114c42 0 76 34 76 76v130" fill="#18b6a4"/>
  <rect x="144" y="157" width="224" height="142" rx="30" fill="#f4f8fb"/>
  <path d="M174 200h164v64H174z" fill="#9ee9df"/>
  <circle cx="190" cy="335" r="38" fill="#f4f8fb"/>
  <circle cx="322" cy="335" r="38" fill="#f4f8fb"/>
  <circle cx="190" cy="335" r="17" fill="#102a43"/>
  <circle cx="322" cy="335" r="17" fill="#102a43"/>
  <path d="M256 82c-37 0-67 30-67 67h28c0-21 18-39 39-39s39 18 39 39h28c0-37-30-67-67-67Z" fill="#ffcb45"/>
  <path d="M112 386h288" stroke="#ffcb45" stroke-width="24" stroke-linecap="round"/>
</svg>
